<svg width="100%" height="100%" viewBox="0 0 40 40" fill="none" xmlns="http://www.w3.org/2000/svg" style="fill-rule:evenodd;clip-rule:evenodd;stroke-linejoin:round;stroke-miterlimit:2;">
<path d="M33.565,34.496l-27.128,0.004c-1.44,0.002 -2.413,-1.543 -1.705,-2.85l13.541,-25.133c0.731,-1.355 2.675,-1.356 3.408,-0.003l13.587,25.13c0.707,1.308 -0.261,2.852 -1.703,2.852Z" style="fill:#6f777b;"/>
<path d="M6.947,32.25l26.105,-0.004l-13.074,-24.181l-13.031,24.185Z" style="fill:#feffff;"/>
<path d="M29.977,28.661l1.398,2.586l-22.754,0.003c0,-0 0.651,-1.166 1.425,-2.568c0.875,0.779 2.108,1.457 3.287,0.955c0.563,-0.24 0.936,-0.89 1.627,-0.89c0.982,-0 1.467,1.075 2.52,1.075c1.054,-0 1.538,-1.075 2.52,-1.075c0.982,-0 1.467,1.075 2.52,1.075c1.053,-0 1.538,-1.075 2.52,-1.075c0.691,-0 1.064,0.65 1.627,0.89c1.188,0.506 2.434,-0.187 3.31,-0.976Z" style="fill:#00a4cd;"/>
<path d="M10.544,27.777c0.242,-0.44 0.485,-0.884 0.715,-1.307c0.778,0.612 1.78,1.077 2.761,0.659c0.475,-0.202 0.861,-0.797 1.444,-0.797c0.878,0 1.317,0.968 2.268,0.968c0.951,-0 1.391,-0.968 2.268,-0.968c0.877,0 1.317,0.968 2.268,0.968c0.951,-0 1.39,-0.968 2.268,-0.968c0.583,0 0.969,0.595 1.444,0.797c0.996,0.424 2.015,-0.061 2.797,-0.687l0.707,1.307c-0.239,0.233 -0.472,0.486 -0.763,0.648c-0.361,0.2 -0.75,0.417 -1.161,0.425c-0.968,0.019 -1.478,-1.075 -2.52,-1.075c-1.054,-0 -1.538,1.075 -2.52,1.075c-0.982,-0 -1.467,-1.075 -2.52,-1.075c-1.053,-0 -1.538,1.075 -2.52,1.075c-0.982,-0 -1.466,-1.075 -2.52,-1.075c-1.62,-0 -1.913,1.626 -3.661,0.663c-0.287,-0.158 -0.525,-0.397 -0.755,-0.633Z" style="fill:#00a4cd;"/>
</svg>