<svg width="26" height="21" viewBox="0 0 26 21" fill="none" xmlns="http://www.w3.org/2000/svg">
<path d="M24.0109 10.9792C26.4088 8.58136 26.4088 4.69439 24.0109 2.2965C21.7282 0.0138128 18.0631 -0.109922 15.6311 2.01916L15.3708 2.24957C14.9441 2.62077 14.9015 3.26931 15.2727 3.69598C15.6439 4.12265 16.2924 4.16532 16.7191 3.79411L16.9793 3.56371C18.6007 2.14716 21.0413 2.22823 22.5645 3.75145C24.1602 5.34719 24.1602 7.93708 22.5645 9.5371L17.7303 14.367C16.1345 15.9628 13.5404 15.9628 11.9446 14.367C10.4214 12.8438 10.3404 10.4032 11.7569 8.78189L11.9574 8.55149C12.3286 8.12482 12.286 7.48054 11.8593 7.10507C11.4326 6.7296 10.7884 6.77654 10.4129 7.20321L10.2124 7.43361C8.08754 9.86563 8.21127 13.5307 10.494 15.8134C12.8918 18.2113 16.7788 18.2113 19.1767 15.8134L24.0109 10.9792ZM1.79842 10.0235C-0.599472 12.4214 -0.599472 16.3084 1.79842 18.702C4.08537 20.9889 7.75047 21.1084 10.1825 18.9793L10.4428 18.7489C10.8694 18.3777 10.9121 17.7292 10.5409 17.3025C10.1697 16.8758 9.52115 16.8332 9.09448 17.2044L8.83421 17.4348C7.21286 18.8513 4.77231 18.7702 3.24909 17.247C1.65335 15.6513 1.65335 13.0614 3.24909 11.4614L8.08327 6.63574C9.67902 5.03999 12.2689 5.03999 13.8689 6.63574C15.3921 8.15895 15.4732 10.5995 14.0567 12.2209L13.8263 12.4811C13.4551 12.9078 13.4977 13.5521 13.9244 13.9275C14.3511 14.303 14.9953 14.2561 15.3708 13.8294L15.6012 13.5691C17.7303 11.1371 17.6066 7.47201 15.3239 5.18506C12.926 2.78717 9.03901 2.78717 6.64112 5.18506L1.79842 10.0235Z" fill="black"/>
</svg>
