<svg width="64" height="80" viewBox="0 0 64 80" fill="none" xmlns="http://www.w3.org/2000/svg">
<g filter="url(#filter0_d_5910_60018)">
<mask id="path-1-inside-1_5910_60018" fill="white">
<path fill-rule="evenodd" clip-rule="evenodd" d="M12.998 18.55C12.998 8.30514 21.2808 0 31.498 0C41.7153 0 49.998 8.30514 49.998 18.55C49.998 31.8 31.498 53 31.498 53C31.498 53 12.998 31.8 12.998 18.55ZM31.498 29C37.297 29 41.998 24.299 41.998 18.5C41.998 12.701 37.297 8 31.498 8C25.6991 8 20.998 12.701 20.998 18.5C20.998 24.299 25.6991 29 31.498 29Z"/>
</mask>
<path fill-rule="evenodd" clip-rule="evenodd" d="M12.998 18.55C12.998 8.30514 21.2808 0 31.498 0C41.7153 0 49.998 8.30514 49.998 18.55C49.998 31.8 31.498 53 31.498 53C31.498 53 12.998 31.8 12.998 18.55ZM31.498 29C37.297 29 41.998 24.299 41.998 18.5C41.998 12.701 37.297 8 31.498 8C25.6991 8 20.998 12.701 20.998 18.5C20.998 24.299 25.6991 29 31.498 29Z" fill="white"/>
<path d="M31.498 53L29.9911 54.315L31.498 56.0418L33.005 54.315L31.498 53ZM31.498 -2C20.1711 -2 10.998 7.20566 10.998 18.55H14.998C14.998 9.40461 22.3905 2 31.498 2V-2ZM51.998 18.55C51.998 7.20566 42.825 -2 31.498 -2V2C40.6056 2 47.998 9.40461 47.998 18.55H51.998ZM31.498 53C33.005 54.315 33.0052 54.3147 33.0056 54.3143C33.0058 54.3141 33.0062 54.3136 33.0066 54.3131C33.0074 54.3122 33.0085 54.3109 33.0099 54.3093C33.0127 54.3061 33.0166 54.3016 33.0216 54.2959C33.0316 54.2844 33.0459 54.2678 33.0645 54.2463C33.1018 54.2032 33.156 54.1402 33.2261 54.0582C33.3662 53.8943 33.5698 53.6543 33.8279 53.3454C34.3439 52.7277 35.0781 51.8337 35.9578 50.7206C37.7155 48.4965 40.0626 45.387 42.4135 41.8511C44.7605 38.3211 47.136 34.3294 48.931 30.344C50.7113 26.3912 51.998 22.2777 51.998 18.55H47.998C47.998 21.4473 46.9723 24.9526 45.2838 28.7013C43.6101 32.4175 41.3606 36.2102 39.0826 39.6364C36.8085 43.0567 34.5306 46.0754 32.8195 48.2404C31.9649 49.3218 31.2538 50.1876 30.758 50.781C30.5102 51.0776 30.3164 51.306 30.1856 51.4591C30.1201 51.5357 30.0705 51.5933 30.0377 51.6313C30.0213 51.6503 30.0091 51.6643 30.0013 51.6733C29.9974 51.6778 29.9946 51.681 29.9929 51.683C29.9921 51.684 29.9915 51.6846 29.9912 51.685C29.991 51.6851 29.991 51.6851 29.9909 51.6852C29.991 51.6852 29.9911 51.685 31.498 53ZM10.998 18.55C10.998 22.2777 12.2848 26.3912 14.0651 30.344C15.8601 34.3294 18.2356 38.3211 20.5826 41.8511C22.9335 45.387 25.2806 48.4965 27.0383 50.7206C27.918 51.8337 28.6522 52.7277 29.1682 53.3454C29.4263 53.6543 29.6299 53.8943 29.77 54.0582C29.8401 54.1402 29.8943 54.2032 29.9316 54.2463C29.9502 54.2678 29.9645 54.2844 29.9745 54.2959C29.9795 54.3016 29.9834 54.3061 29.9862 54.3093C29.9876 54.3109 29.9887 54.3122 29.9895 54.3131C29.9899 54.3136 29.9903 54.3141 29.9905 54.3143C29.9909 54.3147 29.9911 54.315 31.498 53C33.005 51.685 33.0051 51.6852 33.0051 51.6852C33.0051 51.6851 33.0051 51.6851 33.0049 51.685C33.0046 51.6846 33.004 51.684 33.0032 51.683C33.0015 51.681 32.9987 51.6778 32.9948 51.6733C32.987 51.6643 32.9748 51.6503 32.9584 51.6313C32.9256 51.5933 32.876 51.5357 32.8105 51.4591C32.6797 51.306 32.4859 51.0776 32.238 50.781C31.7423 50.1876 31.0312 49.3218 30.1765 48.2404C28.4655 46.0754 26.1876 43.0567 23.9135 39.6364C21.6355 36.2102 19.386 32.4175 17.7122 28.7013C16.0238 24.9526 14.998 21.4473 14.998 18.55H10.998ZM39.998 18.5C39.998 23.1944 36.1925 27 31.498 27V31C38.4016 31 43.998 25.4036 43.998 18.5H39.998ZM31.498 10C36.1925 10 39.998 13.8056 39.998 18.5H43.998C43.998 11.5964 38.4016 6 31.498 6V10ZM22.998 18.5C22.998 13.8056 26.8036 10 31.498 10V6C24.5945 6 18.998 11.5964 18.998 18.5H22.998ZM31.498 27C26.8036 27 22.998 23.1944 22.998 18.5H18.998C18.998 25.4036 24.5945 31 31.498 31V27Z" fill="#130A62" mask="url(#path-1-inside-1_5910_60018)"/>
</g>
<defs>
<filter id="filter0_d_5910_60018" x="4.99805" y="0" width="53" height="69" filterUnits="userSpaceOnUse" color-interpolation-filters="sRGB">
<feFlood flood-opacity="0" result="BackgroundImageFix"/>
<feColorMatrix in="SourceAlpha" type="matrix" values="0 0 0 0 0 0 0 0 0 0 0 0 0 0 0 0 0 0 127 0" result="hardAlpha"/>
<feOffset dy="8"/>
<feGaussianBlur stdDeviation="4"/>
<feComposite in2="hardAlpha" operator="out"/>
<feColorMatrix type="matrix" values="0 0 0 0 0 0 0 0 0 0 0 0 0 0 0 0 0 0 0.4 0"/>
<feBlend mode="normal" in2="BackgroundImageFix" result="effect1_dropShadow_5910_60018"/>
<feBlend mode="normal" in="SourceGraphic" in2="effect1_dropShadow_5910_60018" result="shape"/>
</filter>
</defs>
</svg>
